# xmcd CD database file
#
# Track frame offsets:
#	150
#	33940
#	55502
#	67108
#	88727
#	120084
#	156987
#	184362
#	187392
#
# Disc length: 3109 seconds
#
# Revision: 2
# Processed by: cddbd v1.5.2PL0 Copyright (c) Steve Scherf et al.
# Submitted via: CDex 1.51
#
DISCID=7a0c2309
DTITLE=Blood Ceremony - Living with the Ancients
DYEAR=2011
DGENRE=Doom Metal
TTITLE0=The Great God Pan
TTITLE1=Coven Tree
TTITLE2=The Hermit
TTITLE3=My Demon Brother
TTITLE4=Morning of the Magicians
TTITLE5=Oliver Haddo
TTITLE6=Night of the Augury
TTITLE7=The Witch's Dance
TTITLE8=Daughter of the Sun
EXTD=YEAR: 2011
EXTT0=
EXTT1=
EXTT2=
EXTT3=
EXTT4=
EXTT5=
EXTT6=
EXTT7=
EXTT8=
PLAYORDER=
